<svg xmlns="http://www.w3.org/2000/svg" xmlns:xlink="http://www.w3.org/1999/xlink" width="500" zoomAndPan="magnify" viewBox="0 0 375 374.999991" height="500" preserveAspectRatio="xMidYMid meet" version="1.0"><defs><g/><clipPath id="1b2b603bd1"><path d="M 137 152 L 153.730469 152 L 153.730469 168 L 137 168 Z M 137 152 " clip-rule="nonzero"/></clipPath><clipPath id="290102966a"><path d="M 63.09375 156 L 113 156 L 113 236.34375 L 63.09375 236.34375 Z M 63.09375 156 " clip-rule="nonzero"/></clipPath><clipPath id="d201f3e60a"><path d="M 47.230469 134.355469 L 116 134.355469 L 116 185 L 47.230469 185 Z M 47.230469 134.355469 " clip-rule="nonzero"/></clipPath></defs><g clip-path="url(#1b2b603bd1)"><path fill="#e58013" d="M 145.507812 152.386719 L 147.980469 158.207031 L 153.519531 158.207031 L 149.511719 162.117188 L 150.457031 167.632812 L 145.507812 165.023438 L 140.550781 167.632812 L 141.496094 162.117188 L 137.496094 158.207031 L 143.027344 158.207031 L 145.507812 152.386719 " fill-opacity="1" fill-rule="nonzero"/></g><path fill="#264790" d="M 127.609375 136.625 L 129.277344 140.546875 L 133.015625 140.546875 L 130.3125 143.179688 L 130.949219 146.890625 L 127.609375 145.136719 L 124.277344 146.890625 L 124.910156 143.179688 L 122.210938 140.546875 L 125.941406 140.546875 L 127.609375 136.625 " fill-opacity="1" fill-rule="nonzero"/><path fill="#e58013" d="M 116.324219 166.070312 L 117.421875 168.648438 L 119.871094 168.648438 L 118.097656 170.371094 L 118.519531 172.8125 L 116.324219 171.660156 L 114.136719 172.8125 L 114.558594 170.371094 L 112.789062 168.648438 L 115.234375 168.648438 L 116.324219 166.070312 " fill-opacity="1" fill-rule="nonzero"/><g clip-path="url(#290102966a)"><path fill="#e58013" d="M 69.5625 190.773438 C 66.019531 211.570312 79.21875 231.363281 99.378906 236.34375 C 98.398438 236.25 97.40625 236.121094 96.414062 235.949219 C 74.625 232.242188 59.964844 211.554688 63.675781 189.769531 C 67.390625 167.980469 88.066406 153.3125 109.855469 157.023438 C 110.847656 157.199219 111.828125 157.402344 112.789062 157.636719 C 92.113281 155.667969 73.109375 169.96875 69.5625 190.773438 " fill-opacity="1" fill-rule="evenodd"/></g><path fill="#264790" d="M 130.070312 221.632812 C 97.121094 240.398438 64.601562 194.519531 93.210938 169.640625 C 92.292969 170.167969 91.390625 170.738281 90.507812 171.363281 C 76.082031 181.59375 72.675781 201.585938 82.898438 216.011719 C 93.128906 230.4375 113.121094 233.839844 127.546875 223.617188 C 128.429688 222.988281 129.269531 222.328125 130.070312 221.632812 " fill-opacity="1" fill-rule="evenodd"/><g clip-path="url(#d201f3e60a)"><path fill="#264790" d="M 105.804688 146.109375 L 107.792969 150.914062 C 106.226562 150.746094 104.65625 150.664062 103.09375 150.664062 C 92.40625 150.664062 81.984375 154.464844 73.742188 161.355469 C 71 163.640625 68.566406 166.226562 66.453125 169.046875 L 64.371094 164.007812 L 64.109375 163.382812 L 62.089844 163.238281 L 55.507812 162.769531 L 50.816406 162.433594 L 50.632812 162.421875 L 50.632812 176.375 C 51.117188 176.660156 51.445312 177.183594 51.445312 177.777344 C 51.445312 178.285156 51.207031 178.742188 50.835938 179.035156 C 50.773438 179.089844 50.707031 179.140625 50.632812 179.175781 L 50.632812 180.707031 L 52.335938 184.117188 L 47.230469 184.117188 L 48.902344 180.769531 L 48.902344 179.269531 C 48.421875 178.992188 48.089844 178.472656 48.089844 177.871094 C 48.089844 177.304688 48.375 176.808594 48.816406 176.519531 C 48.847656 176.496094 48.871094 176.46875 48.902344 176.449219 C 48.941406 176.425781 48.972656 176.402344 49.015625 176.375 L 49.015625 162.308594 L 77.042969 135.644531 L 108.585938 134.859375 L 115.71875 134.679688 L 105.804688 146.109375 " fill-opacity="1" fill-rule="evenodd"/></g><g fill="#264790" fill-opacity="1"><g transform="translate(94.447462, 206.551261)"><g><path d="M 21.5 0 L 19.5625 -5.25 L 8.5625 -5.25 L 6.671875 0 L 0.359375 0 L 11.171875 -27.609375 L 16.8125 -27.609375 L 27.96875 0 Z M 14.046875 -20.3125 L 10.453125 -10.453125 L 17.671875 -10.453125 Z M 14.046875 -20.3125 "/></g></g></g><g fill="#264790" fill-opacity="1"><g transform="translate(122.777641, 206.551261)"><g><path d="M 13.765625 -27.609375 C 15.628906 -27.609375 17.289062 -27.191406 18.75 -26.359375 C 20.21875 -25.535156 21.382812 -24.40625 22.25 -22.96875 C 23.113281 -21.539062 23.546875 -19.921875 23.546875 -18.109375 C 23.546875 -16.296875 23.117188 -14.671875 22.265625 -13.234375 C 21.410156 -11.804688 20.242188 -10.679688 18.765625 -9.859375 C 17.296875 -9.046875 15.628906 -8.640625 13.765625 -8.640625 L 9.15625 -8.640625 L 9.15625 0 L 3.15625 0 L 3.15625 -27.609375 Z M 13.53125 -14.15625 C 14.71875 -14.15625 15.671875 -14.53125 16.390625 -15.28125 C 17.117188 -16.03125 17.484375 -16.972656 17.484375 -18.109375 C 17.484375 -19.265625 17.117188 -20.21875 16.390625 -20.96875 C 15.671875 -21.71875 14.71875 -22.09375 13.53125 -22.09375 L 9.15625 -22.09375 L 9.15625 -14.15625 Z M 13.53125 -14.15625 "/></g></g></g><g fill="#264790" fill-opacity="1"><g transform="translate(147.31994, 206.551261)"><g/></g></g><g fill="#264790" fill-opacity="1"><g transform="translate(156.750181, 206.551261)"><g><path d="M 15.828125 0.59375 C 13.796875 0.59375 11.910156 0.234375 10.171875 -0.484375 C 8.441406 -1.210938 6.929688 -2.226562 5.640625 -3.53125 C 4.347656 -4.832031 3.347656 -6.359375 2.640625 -8.109375 C 1.929688 -9.859375 1.578125 -11.742188 1.578125 -13.765625 C 1.578125 -15.816406 1.929688 -17.722656 2.640625 -19.484375 C 3.347656 -21.253906 4.347656 -22.785156 5.640625 -24.078125 C 6.929688 -25.378906 8.441406 -26.390625 10.171875 -27.109375 C 11.910156 -27.835938 13.796875 -28.203125 15.828125 -28.203125 C 18.054688 -28.203125 20.101562 -27.742188 21.96875 -26.828125 C 23.84375 -25.910156 25.410156 -24.617188 26.671875 -22.953125 C 27.929688 -21.296875 28.769531 -19.378906 29.1875 -17.203125 L 23.203125 -17.203125 C 22.648438 -18.828125 21.710938 -20.117188 20.390625 -21.078125 C 19.078125 -22.046875 17.554688 -22.53125 15.828125 -22.53125 C 14.273438 -22.53125 12.878906 -22.140625 11.640625 -21.359375 C 10.398438 -20.585938 9.414062 -19.539062 8.6875 -18.21875 C 7.96875 -16.90625 7.609375 -15.421875 7.609375 -13.765625 C 7.609375 -12.109375 7.96875 -10.628906 8.6875 -9.328125 C 9.414062 -8.023438 10.398438 -6.992188 11.640625 -6.234375 C 12.878906 -5.472656 14.273438 -5.09375 15.828125 -5.09375 C 17.640625 -5.09375 19.203125 -5.601562 20.515625 -6.625 C 21.828125 -7.65625 22.734375 -9.050781 23.234375 -10.8125 L 29.28125 -10.8125 C 28.851562 -8.519531 28.015625 -6.519531 26.765625 -4.8125 C 25.515625 -3.101562 23.945312 -1.773438 22.0625 -0.828125 C 20.1875 0.117188 18.109375 0.59375 15.828125 0.59375 Z M 15.828125 0.59375 "/></g></g></g><g fill="#264790" fill-opacity="1"><g transform="translate(187.171584, 206.551261)"><g><path d="M 16.25 0.59375 C 14.144531 0.59375 12.195312 0.234375 10.40625 -0.484375 C 8.625 -1.210938 7.066406 -2.226562 5.734375 -3.53125 C 4.410156 -4.832031 3.378906 -6.359375 2.640625 -8.109375 C 1.898438 -9.859375 1.53125 -11.757812 1.53125 -13.8125 C 1.53125 -15.863281 1.898438 -17.765625 2.640625 -19.515625 C 3.378906 -21.265625 4.410156 -22.785156 5.734375 -24.078125 C 7.066406 -25.378906 8.625 -26.390625 10.40625 -27.109375 C 12.195312 -27.835938 14.144531 -28.203125 16.25 -28.203125 C 18.351562 -28.203125 20.300781 -27.835938 22.09375 -27.109375 C 23.882812 -26.390625 25.4375 -25.378906 26.75 -24.078125 C 28.0625 -22.785156 29.085938 -21.265625 29.828125 -19.515625 C 30.566406 -17.765625 30.9375 -15.863281 30.9375 -13.8125 C 30.9375 -11.757812 30.566406 -9.859375 29.828125 -8.109375 C 29.085938 -6.359375 28.0625 -4.832031 26.75 -3.53125 C 25.4375 -2.226562 23.882812 -1.210938 22.09375 -0.484375 C 20.300781 0.234375 18.351562 0.59375 16.25 0.59375 Z M 16.25 -5.046875 C 17.90625 -5.046875 19.382812 -5.425781 20.6875 -6.1875 C 21.988281 -6.957031 23.015625 -8 23.765625 -9.3125 C 24.515625 -10.625 24.890625 -12.125 24.890625 -13.8125 C 24.890625 -15.46875 24.515625 -16.957031 23.765625 -18.28125 C 23.015625 -19.613281 21.988281 -20.660156 20.6875 -21.421875 C 19.382812 -22.179688 17.90625 -22.5625 16.25 -22.5625 C 14.625 -22.5625 13.148438 -22.179688 11.828125 -21.421875 C 10.515625 -20.660156 9.476562 -19.613281 8.71875 -18.28125 C 7.957031 -16.957031 7.578125 -15.46875 7.578125 -13.8125 C 7.578125 -12.15625 7.957031 -10.660156 8.71875 -9.328125 C 9.476562 -8.003906 10.515625 -6.957031 11.828125 -6.1875 C 13.148438 -5.425781 14.625 -5.046875 16.25 -5.046875 Z M 16.25 -5.046875 "/></g></g></g><g fill="#264790" fill-opacity="1"><g transform="translate(219.644765, 206.551261)"><g><path d="M 9.15625 -5.5625 L 19.71875 -5.5625 L 19.71875 0 L 3.15625 0 L 3.15625 -27.609375 L 9.15625 -27.609375 Z M 9.15625 -5.5625 "/></g></g></g><g fill="#264790" fill-opacity="1"><g transform="translate(240.241359, 206.551261)"><g><path d="M 9.15625 -5.5625 L 19.71875 -5.5625 L 19.71875 0 L 3.15625 0 L 3.15625 -27.609375 L 9.15625 -27.609375 Z M 9.15625 -5.5625 "/></g></g></g><g fill="#264790" fill-opacity="1"><g transform="translate(260.837954, 206.551261)"><g><path d="M 9.15625 -5.5625 L 20.15625 -5.5625 L 20.15625 0 L 3.15625 0 L 3.15625 -27.609375 L 19.71875 -27.609375 L 19.71875 -22.09375 L 9.15625 -22.09375 L 9.15625 -16.65625 L 18.703125 -16.65625 L 18.703125 -11.25 L 9.15625 -11.25 Z M 9.15625 -5.5625 "/></g></g></g><g fill="#264790" fill-opacity="1"><g transform="translate(282.894459, 206.551261)"><g><path d="M 15.265625 -14.4375 L 29.984375 -14.4375 C 29.953125 -12.257812 29.59375 -10.253906 28.90625 -8.421875 C 28.226562 -6.597656 27.265625 -5.015625 26.015625 -3.671875 C 24.765625 -2.328125 23.28125 -1.28125 21.5625 -0.53125 C 19.84375 0.21875 17.941406 0.59375 15.859375 0.59375 C 13.835938 0.59375 11.957031 0.238281 10.21875 -0.46875 C 8.476562 -1.175781 6.957031 -2.175781 5.65625 -3.46875 C 4.351562 -4.757812 3.347656 -6.285156 2.640625 -8.046875 C 1.929688 -9.804688 1.578125 -11.710938 1.578125 -13.765625 C 1.578125 -15.847656 1.925781 -17.765625 2.625 -19.515625 C 3.320312 -21.265625 4.304688 -22.785156 5.578125 -24.078125 C 6.859375 -25.378906 8.363281 -26.390625 10.09375 -27.109375 C 11.832031 -27.835938 13.710938 -28.203125 15.734375 -28.203125 C 18.023438 -28.203125 20.144531 -27.753906 22.09375 -26.859375 C 24.039062 -25.972656 25.671875 -24.738281 26.984375 -23.15625 C 28.296875 -21.582031 29.164062 -19.753906 29.59375 -17.671875 L 23.4375 -17.671875 C 22.851562 -19.171875 21.878906 -20.351562 20.515625 -21.21875 C 19.148438 -22.09375 17.597656 -22.53125 15.859375 -22.53125 C 14.222656 -22.53125 12.785156 -22.15625 11.546875 -21.40625 C 10.316406 -20.65625 9.351562 -19.628906 8.65625 -18.328125 C 7.957031 -17.023438 7.609375 -15.503906 7.609375 -13.765625 C 7.609375 -12.054688 7.953125 -10.550781 8.640625 -9.25 C 9.328125 -7.945312 10.285156 -6.925781 11.515625 -6.1875 C 12.753906 -5.457031 14.203125 -5.09375 15.859375 -5.09375 C 17.648438 -5.09375 19.253906 -5.523438 20.671875 -6.390625 C 22.085938 -7.253906 23.046875 -8.398438 23.546875 -9.828125 L 15.265625 -9.828125 Z M 15.265625 -14.4375 "/></g></g></g><g fill="#264790" fill-opacity="1"><g transform="translate(314.341757, 206.551261)"><g><path d="M 9.15625 -5.5625 L 20.15625 -5.5625 L 20.15625 0 L 3.15625 0 L 3.15625 -27.609375 L 19.71875 -27.609375 L 19.71875 -22.09375 L 9.15625 -22.09375 L 9.15625 -16.65625 L 18.703125 -16.65625 L 18.703125 -11.25 L 9.15625 -11.25 Z M 9.15625 -5.5625 "/></g></g></g><g fill="#264790" fill-opacity="1"><g transform="translate(161.211894, 224.72981)"><g/></g></g><g fill="#264790" fill-opacity="1"><g transform="translate(173.520878, 224.72981)"><g/></g></g><g fill="#264790" fill-opacity="1"><g transform="translate(185.829862, 224.72981)"><g/></g></g><g fill="#264790" fill-opacity="1"><g transform="translate(198.138846, 224.72981)"><g/></g></g><g fill="#264790" fill-opacity="1"><g transform="translate(210.44783, 224.72981)"><g/></g></g><g fill="#264790" fill-opacity="1"><g transform="translate(222.756814, 224.72981)"><g/></g></g><g fill="#264790" fill-opacity="1"><g transform="translate(235.065798, 224.72981)"><g/></g></g><g fill="#264790" fill-opacity="1"><g transform="translate(247.379857, 224.72981)"><g><path d="M 6.609375 -6.25 L 12.96875 -6.25 C 12.957031 -5.300781 12.800781 -4.429688 12.5 -3.640625 C 12.207031 -2.847656 11.789062 -2.160156 11.25 -1.578125 C 10.707031 -1.003906 10.0625 -0.554688 9.3125 -0.234375 C 8.570312 0.0859375 7.753906 0.25 6.859375 0.25 C 5.984375 0.25 5.171875 0.0976562 4.421875 -0.203125 C 3.671875 -0.515625 3.015625 -0.945312 2.453125 -1.5 C 1.890625 -2.0625 1.453125 -2.722656 1.140625 -3.484375 C 0.835938 -4.242188 0.6875 -5.066406 0.6875 -5.953125 C 0.6875 -6.847656 0.835938 -7.675781 1.140625 -8.4375 C 1.441406 -9.195312 1.863281 -9.859375 2.40625 -10.421875 C 2.957031 -10.984375 3.609375 -11.421875 4.359375 -11.734375 C 5.117188 -12.046875 5.9375 -12.203125 6.8125 -12.203125 C 7.800781 -12.203125 8.710938 -12.007812 9.546875 -11.625 C 10.390625 -11.238281 11.097656 -10.703125 11.671875 -10.015625 C 12.242188 -9.328125 12.617188 -8.535156 12.796875 -7.640625 L 10.140625 -7.640625 C 9.890625 -8.285156 9.46875 -8.796875 8.875 -9.171875 C 8.28125 -9.554688 7.609375 -9.75 6.859375 -9.75 C 6.148438 -9.75 5.53125 -9.582031 5 -9.25 C 4.46875 -8.925781 4.050781 -8.484375 3.75 -7.921875 C 3.445312 -7.359375 3.296875 -6.703125 3.296875 -5.953125 C 3.296875 -5.210938 3.441406 -4.5625 3.734375 -4 C 4.035156 -3.4375 4.453125 -2.992188 4.984375 -2.671875 C 5.515625 -2.359375 6.140625 -2.203125 6.859375 -2.203125 C 7.628906 -2.203125 8.320312 -2.390625 8.9375 -2.765625 C 9.550781 -3.140625 9.96875 -3.632812 10.1875 -4.25 L 6.609375 -4.25 Z M 6.609375 -6.25 "/></g></g></g><g fill="#264790" fill-opacity="1"><g transform="translate(269.209672, 224.72981)"><g><path d="M 6.171875 0.25 C 5.234375 0.25 4.394531 0.0507812 3.65625 -0.34375 C 2.914062 -0.75 2.328125 -1.304688 1.890625 -2.015625 C 1.460938 -2.734375 1.25 -3.554688 1.25 -4.484375 L 1.25 -11.9375 L 3.84375 -11.9375 L 3.84375 -4.609375 C 3.84375 -3.867188 4.0625 -3.28125 4.5 -2.84375 C 4.9375 -2.40625 5.492188 -2.1875 6.171875 -2.1875 C 6.867188 -2.1875 7.4375 -2.40625 7.875 -2.84375 C 8.3125 -3.28125 8.53125 -3.867188 8.53125 -4.609375 L 8.53125 -11.9375 L 11.109375 -11.9375 L 11.109375 -4.484375 C 11.109375 -3.554688 10.894531 -2.734375 10.46875 -2.015625 C 10.039062 -1.304688 9.453125 -0.75 8.703125 -0.34375 C 7.960938 0.0507812 7.117188 0.25 6.171875 0.25 Z M 6.171875 0.25 "/></g></g></g><g fill="#264790" fill-opacity="1"><g transform="translate(289.793935, 224.72981)"><g><path d="M 1.359375 0 L 1.359375 -11.9375 L 3.953125 -11.9375 L 3.953125 0 Z M 1.359375 0 "/></g></g></g><g fill="#264790" fill-opacity="1"><g transform="translate(303.348483, 224.72981)"><g><path d="M 5.890625 -11.9375 C 6.765625 -11.9375 7.570312 -11.789062 8.3125 -11.5 C 9.050781 -11.207031 9.691406 -10.789062 10.234375 -10.25 C 10.773438 -9.71875 11.191406 -9.085938 11.484375 -8.359375 C 11.785156 -7.640625 11.9375 -6.847656 11.9375 -5.984375 C 11.9375 -5.117188 11.785156 -4.320312 11.484375 -3.59375 C 11.191406 -2.875 10.773438 -2.242188 10.234375 -1.703125 C 9.691406 -1.160156 9.050781 -0.738281 8.3125 -0.4375 C 7.570312 -0.144531 6.765625 0 5.890625 0 L 1.359375 0 L 1.359375 -11.9375 Z M 5.8125 -2.40625 C 6.5 -2.40625 7.101562 -2.554688 7.625 -2.859375 C 8.144531 -3.171875 8.550781 -3.597656 8.84375 -4.140625 C 9.144531 -4.679688 9.296875 -5.296875 9.296875 -5.984375 C 9.296875 -6.679688 9.144531 -7.296875 8.84375 -7.828125 C 8.550781 -8.367188 8.144531 -8.785156 7.625 -9.078125 C 7.101562 -9.378906 6.5 -9.53125 5.8125 -9.53125 L 3.953125 -9.53125 L 3.953125 -2.40625 Z M 5.8125 -2.40625 "/></g></g></g><g fill="#264790" fill-opacity="1"><g transform="translate(324.222808, 224.72981)"><g><path d="M 3.953125 -2.40625 L 8.71875 -2.40625 L 8.71875 0 L 1.359375 0 L 1.359375 -11.9375 L 8.53125 -11.9375 L 8.53125 -9.5625 L 3.953125 -9.5625 L 3.953125 -7.203125 L 8.09375 -7.203125 L 8.09375 -4.859375 L 3.953125 -4.859375 Z M 3.953125 -2.40625 "/></g></g></g></svg>